{
  "accessors": [
    {
      "bufferView": 2,
      "componentType": 5126,
      "count": 5753,
      "max": [
        0.9236103892326355,
        0.24210476875305176,
        4.3523178100585938
      ],
      "min": [
        -0.80744791030883789,
        -0.27552753686904907,
        0.0013834238052368164
      ],
      "type": "VEC3"
    },
    {
      "bufferView": 2,
      "byteOffset": 69036,
      "componentType": 5126,
      "count": 5753,
      "max": [
        1,
        1,
        1
      ],
      "min": [
        -1,
        -1,
        -1
      ],
      "type": "VEC3"
    },
    {
      "bufferView": 3,
      "componentType": 5126,
      "count": 5753,
      "max": [
        1,
        1,
        1,
        1
      ],
      "min": [
        -1,
        -1,
        -1,
        -1
      ],
      "type": "VEC4"
    },
    {
      "bufferView": 1,
      "componentType": 5126,
      "count": 5753,
      "max": [
        0.98121404647827148,
        0.9994499683380127
      ],
      "min": [
        0.0005499716498889029,
        0.0005499716498889029
      ],
      "type": "VEC2"
    },
    {
      "bufferView": 1,
      "byteOffset": 46024,
      "componentType": 5126,
      "count": 5753,
      "max": [
        0.98121404647827148,
        0.9994499683380127
      ],
      "min": [
        0.0005499716498889029,
        0.0005499716498889029
      ],
      "type": "VEC2"
    },
    {
      "bufferView": 1,
      "byteOffset": 92048,
      "componentType": 5126,
      "count": 5753,
      "max": [
        0.98121404647827148,
        0.9994499683380127
      ],
      "min": [
        0.0005499716498889029,
        0.0005499716498889029
      ],
      "type": "VEC2"
    },
    {
      "bufferView": 0,
      "componentType": 5125,
      "count": 16566,
      "max": [
        5752
      ],
      "min": [
        0
      ],
      "type": "SCALAR"
    }
  ],
  "asset": {
    "extras": {
      "author": "mig26 (https://sketchfab.com/mig26)",
      "license": "CC-BY-4.0 (http://creativecommons.org/licenses/by/4.0/)",
      "source": "https://sketchfab.com/3d-models/acoustic-guitar-0f4e0e54644e4fa1b96eaf033e17db6f",
      "title": "Acoustic Guitar"
    },
    "generator": "Sketchfab-8.46.0",
    "version": "2.0"
  },
  "bufferViews": [
    {
      "buffer": 0,
      "byteLength": 66264,
      "byteOffset": 0,
      "name": "floatBufferViews",
      "target": 34963
    },
    {
      "buffer": 0,
      "byteLength": 138072,
      "byteOffset": 66264,
      "byteStride": 8,
      "name": "floatBufferViews",
      "target": 34962
    },
    {
      "buffer": 0,
      "byteLength": 138072,
      "byteOffset": 204336,
      "byteStride": 12,
      "name": "floatBufferViews",
      "target": 34962
    },
    {
      "buffer": 0,
      "byteLength": 92048,
      "byteOffset": 342408,
      "byteStride": 16,
      "name": "floatBufferViews",
      "target": 34962
    }
  ],
  "buffers": [
    {
      "byteLength": 434456,
      "uri": "scene.bin"
    }
  ],
  "images": [
    {
      "uri": "textures/Guitar_baseColor.png"
    },
    {
      "uri": "textures/Guitar_metallicRoughness.png"
    },
    {
      "uri": "textures/Guitar_normal.png"
    }
  ],
  "materials": [
    {
      "doubleSided": true,
      "name": "Guitar",
      "normalTexture": {
        "index": 2,
        "scale": 1,
        "texCoord": 0
      },
      "pbrMetallicRoughness": {
        "baseColorFactor": [
          1,
          1,
          1,
          1
        ],
        "baseColorTexture": {
          "index": 0,
          "texCoord": 0
        },
        "metallicFactor": 1,
        "metallicRoughnessTexture": {
          "index": 1,
          "texCoord": 0
        },
        "roughnessFactor": 1
      }
    }
  ],
  "meshes": [
    {
      "name": "Guitar_Guitar_0",
      "primitives": [
        {
          "attributes": {
            "NORMAL": 1,
            "POSITION": 0,
            "TANGENT": 2,
            "TEXCOORD_0": 3,
            "TEXCOORD_1": 4,
            "TEXCOORD_2": 5
          },
          "indices": 6,
          "material": 0,
          "mode": 4
        }
      ]
    }
  ],
  "nodes": [
    {
      "children": [
        1
      ],
      "name": "RootNode (gltf orientation matrix)",
      "rotation": [
        -0.70710678118654746,
        -0,
        -0,
        0.70710678118654757
      ]
    },
    {
      "children": [
        2
      ],
      "name": "RootNode (model correction matrix)"
    },
    {
      "children": [
        3
      ],
      "matrix": [
        1,
        0,
        0,
        0,
        0,
        0,
        1,
        0,
        0,
        -1,
        0,
        0,
        0,
        0,
        0,
        1
      ],
      "name": "445ea61716f04f10a186ef83d647e1da.fbx"
    },
    {
      "children": [
        4
      ],
      "name": "RootNode"
    },
    {
      "children": [
        5
      ],
      "matrix": [
        100,
        0,
        0,
        0,
        0,
        -1.6292067939183141e-05,
        -99.999999999998678,
        0,
        0,
        99.999999999998678,
        -1.6292067939183141e-05,
        0,
        0,
        0,
        0,
        1
      ],
      "name": "Guitar"
    },
    {
      "mesh": 0,
      "name": "Guitar_Guitar_0"
    }
  ],
  "samplers": [
    {
      "magFilter": 9729,
      "minFilter": 9987,
      "wrapS": 10497,
      "wrapT": 10497
    }
  ],
  "scene": 0,
  "scenes": [
    {
      "name": "OSG_Scene",
      "nodes": [
        0
      ]
    }
  ],
  "textures": [
    {
      "sampler": 0,
      "source": 0
    },
    {
      "sampler": 0,
      "source": 1
    },
    {
      "sampler": 0,
      "source": 2
    }
  ]
}

